<?xml version="1.0" encoding="UTF-8" standalone="no"?><svg xmlns="http://www.w3.org/2000/svg" xmlns:xlink="http://www.w3.org/1999/xlink" contentScriptType="application/ecmascript" contentStyleType="text/css" height="361px" preserveAspectRatio="none" style="width:644px;height:361px;" version="1.1" viewBox="0 0 644 361" width="644px" zoomAndPan="magnify"><defs><filter height="300%" id="f1r8144qk5gxfq" width="300%" x="-1" y="-1"><feGaussianBlur result="blurOut" stdDeviation="2.0"/><feColorMatrix in="blurOut" result="blurOut2" type="matrix" values="0 0 0 0 0 0 0 0 0 0 0 0 0 0 0 0 0 0 .4 0"/><feOffset dx="4.0" dy="4.0" in="blurOut2" result="blurOut3"/><feBlend in="SourceGraphic" in2="blurOut3" mode="normal"/></filter></defs><g><text fill="#000000" font-family="sans-serif" font-size="18" lengthAdjust="spacingAndGlyphs" textLength="513" x="69.5" y="18.6855">Cuiからのクラス図生成処理にかかわるオブジェクトのクラス図</text><!--class OutputType--><rect fill="#FEFECE" filter="url(#f1r8144qk5gxfq)" height="89.5078" id="OutputType" style="stroke: #A80036; stroke-width: 1.5;" width="94" x="476" y="260.6406"/><ellipse cx="491" cy="276.6406" fill="#EB937F" rx="11" ry="11" style="stroke: #A80036; stroke-width: 1.0;"/><path d="M489.7188,275.3125 L494.2344,275.3125 L494.2344,277.2656 L489.7188,277.2656 L489.7188,281.5625 L494.9531,281.5625 L494.9531,283.5 L487.5,283.5 L487.5,269.875 L494.625,269.875 L494.625,271.8125 L489.7188,271.8125 L489.7188,275.3125 Z "/><text fill="#000000" font-family="sans-serif" font-size="12" lengthAdjust="spacingAndGlyphs" textLength="62" x="505" y="281.5508">OutputType</text><line style="stroke: #A80036; stroke-width: 1.5;" x1="477" x2="569" y1="292.6406" y2="292.6406"/><text fill="#000000" font-family="sans-serif" font-size="11" lengthAdjust="spacingAndGlyphs" textLength="28" x="482" y="308.0596">None,</text><text fill="#000000" font-family="sans-serif" font-size="11" lengthAdjust="spacingAndGlyphs" textLength="31" x="482" y="321.8955">Image,</text><text fill="#000000" font-family="sans-serif" font-size="11" lengthAdjust="spacingAndGlyphs" textLength="24" x="482" y="335.7314">Ascii</text><line style="stroke: #A80036; stroke-width: 1.5;" x1="477" x2="569" y1="342.1484" y2="342.1484"/><!--class CommandParser--><rect fill="#FEFECE" filter="url(#f1r8144qk5gxfq)" height="61.8359" id="CommandParser" style="stroke: #A80036; stroke-width: 1.5;" width="221" x="412.5" y="138.6406"/><ellipse cx="470.75" cy="154.6406" fill="#ADD1B2" rx="11" ry="11" style="stroke: #A80036; stroke-width: 1.0;"/><path d="M474.4375,155.8438 Q474.1875,159.3281 473.0469,160.4844 Q472.0156,161.5 470.6094,161.5 Q469.2031,161.5 468.1719,160.4844 Q466.4219,158.7188 466.4219,155.0469 Q466.4219,150.7969 468.2969,148.8906 Q469.3438,147.875 470.6719,147.875 Q472.0781,147.875 472.9219,148.6875 Q474.4063,150.2031 474.3281,153.0781 L472.2031,153.0781 Q472.125,150.75 471.4844,150.1094 Q471.2031,149.8125 470.6719,149.8125 Q470.2188,149.8125 469.8594,150.1875 Q468.625,151.4063 468.625,154.9219 Q468.625,157.9688 469.6719,158.9844 Q470.0938,159.4219 470.6094,159.4219 Q471.0625,159.4219 471.5,158.9844 Q472.0625,158.4375 472.1406,155.8438 L474.4375,155.8438 Z "/><text fill="#000000" font-family="sans-serif" font-size="12" lengthAdjust="spacingAndGlyphs" textLength="96" x="491.25" y="159.5508">CommandParser</text><line style="stroke: #A80036; stroke-width: 1.5;" x1="413.5" x2="632.5" y1="170.6406" y2="170.6406"/><line style="stroke: #A80036; stroke-width: 1.5;" x1="413.5" x2="632.5" y1="178.6406" y2="178.6406"/><ellipse cx="423.5" cy="189.6406" fill="#84BE84" rx="3" ry="3" style="stroke: #038048; stroke-width: 1.0;"/><text fill="#000000" font-family="sans-serif" font-size="11" lengthAdjust="spacingAndGlyphs" text-decoration="underline" textLength="195" x="432.5" y="194.0596">Parse(input: string): CommandLineParam</text><!--class CommandLineParam--><rect fill="#FEFECE" filter="url(#f1r8144qk5gxfq)" height="48" id="CommandLineParam" style="stroke: #A80036; stroke-width: 1.5;" width="152" x="289" y="281.6406"/><ellipse cx="304" cy="297.6406" fill="#ADD1B2" rx="11" ry="11" style="stroke: #A80036; stroke-width: 1.0;"/><path d="M307.6875,298.8438 Q307.4375,302.3281 306.2969,303.4844 Q305.2656,304.5 303.8594,304.5 Q302.4531,304.5 301.4219,303.4844 Q299.6719,301.7188 299.6719,298.0469 Q299.6719,293.7969 301.5469,291.8906 Q302.5938,290.875 303.9219,290.875 Q305.3281,290.875 306.1719,291.6875 Q307.6563,293.2031 307.5781,296.0781 L305.4531,296.0781 Q305.375,293.75 304.7344,293.1094 Q304.4531,292.8125 303.9219,292.8125 Q303.4688,292.8125 303.1094,293.1875 Q301.875,294.4063 301.875,297.9219 Q301.875,300.9688 302.9219,301.9844 Q303.3438,302.4219 303.8594,302.4219 Q304.3125,302.4219 304.75,301.9844 Q305.3125,301.4375 305.3906,298.8438 L307.6875,298.8438 Z "/><text fill="#000000" font-family="sans-serif" font-size="12" lengthAdjust="spacingAndGlyphs" textLength="120" x="318" y="302.5508">CommandLineParam</text><line style="stroke: #A80036; stroke-width: 1.5;" x1="290" x2="440" y1="313.6406" y2="313.6406"/><line style="stroke: #A80036; stroke-width: 1.5;" x1="290" x2="440" y1="321.6406" y2="321.6406"/><!--class FileParser--><rect fill="#FEFECE" filter="url(#f1r8144qk5gxfq)" height="61.8359" id="FileParser" style="stroke: #A80036; stroke-width: 1.5;" width="240" x="137" y="138.6406"/><ellipse cx="224.25" cy="154.6406" fill="#ADD1B2" rx="11" ry="11" style="stroke: #A80036; stroke-width: 1.0;"/><path d="M227.9375,155.8438 Q227.6875,159.3281 226.5469,160.4844 Q225.5156,161.5 224.1094,161.5 Q222.7031,161.5 221.6719,160.4844 Q219.9219,158.7188 219.9219,155.0469 Q219.9219,150.7969 221.7969,148.8906 Q222.8438,147.875 224.1719,147.875 Q225.5781,147.875 226.4219,148.6875 Q227.9063,150.2031 227.8281,153.0781 L225.7031,153.0781 Q225.625,150.75 224.9844,150.1094 Q224.7031,149.8125 224.1719,149.8125 Q223.7188,149.8125 223.3594,150.1875 Q222.125,151.4063 222.125,154.9219 Q222.125,157.9688 223.1719,158.9844 Q223.5938,159.4219 224.1094,159.4219 Q224.5625,159.4219 225,158.9844 Q225.5625,158.4375 225.6406,155.8438 L227.9375,155.8438 Z "/><text fill="#000000" font-family="sans-serif" font-size="12" lengthAdjust="spacingAndGlyphs" textLength="57" x="244.75" y="159.5508">FileParser</text><line style="stroke: #A80036; stroke-width: 1.5;" x1="138" x2="376" y1="170.6406" y2="170.6406"/><line style="stroke: #A80036; stroke-width: 1.5;" x1="138" x2="376" y1="178.6406" y2="178.6406"/><ellipse cx="148" cy="189.6406" fill="#84BE84" rx="3" ry="3" style="stroke: #038048; stroke-width: 1.0;"/><text fill="#000000" font-family="sans-serif" font-size="11" lengthAdjust="spacingAndGlyphs" text-decoration="underline" textLength="214" x="157" y="194.0596">Parse(input: CommandLineParam): FileParam</text><!--class FileParam--><rect fill="#FEFECE" filter="url(#f1r8144qk5gxfq)" height="48" id="FileParam" style="stroke: #A80036; stroke-width: 1.5;" width="89" x="87.5" y="281.6406"/><ellipse cx="102.5" cy="297.6406" fill="#ADD1B2" rx="11" ry="11" style="stroke: #A80036; stroke-width: 1.0;"/><path d="M106.1875,298.8438 Q105.9375,302.3281 104.7969,303.4844 Q103.7656,304.5 102.3594,304.5 Q100.9531,304.5 99.9219,303.4844 Q98.1719,301.7188 98.1719,298.0469 Q98.1719,293.7969 100.0469,291.8906 Q101.0938,290.875 102.4219,290.875 Q103.8281,290.875 104.6719,291.6875 Q106.1563,293.2031 106.0781,296.0781 L103.9531,296.0781 Q103.875,293.75 103.2344,293.1094 Q102.9531,292.8125 102.4219,292.8125 Q101.9688,292.8125 101.6094,293.1875 Q100.375,294.4063 100.375,297.9219 Q100.375,300.9688 101.4219,301.9844 Q101.8438,302.4219 102.3594,302.4219 Q102.8125,302.4219 103.25,301.9844 Q103.8125,301.4375 103.8906,298.8438 L106.1875,298.8438 Z "/><text fill="#000000" font-family="sans-serif" font-size="12" lengthAdjust="spacingAndGlyphs" textLength="57" x="116.5" y="302.5508">FileParam</text><line style="stroke: #A80036; stroke-width: 1.5;" x1="88.5" x2="175.5" y1="313.6406" y2="313.6406"/><line style="stroke: #A80036; stroke-width: 1.5;" x1="88.5" x2="175.5" y1="321.6406" y2="321.6406"/><!--class InputParser--><rect fill="#FEFECE" filter="url(#f1r8144qk5gxfq)" height="48" id="InputParser" style="stroke: #A80036; stroke-width: 1.5;" width="96" x="6" y="145.6406"/><ellipse cx="21" cy="161.6406" fill="#ADD1B2" rx="11" ry="11" style="stroke: #A80036; stroke-width: 1.0;"/><path d="M24.6875,162.8438 Q24.4375,166.3281 23.2969,167.4844 Q22.2656,168.5 20.8594,168.5 Q19.4531,168.5 18.4219,167.4844 Q16.6719,165.7188 16.6719,162.0469 Q16.6719,157.7969 18.5469,155.8906 Q19.5938,154.875 20.9219,154.875 Q22.3281,154.875 23.1719,155.6875 Q24.6563,157.2031 24.5781,160.0781 L22.4531,160.0781 Q22.375,157.75 21.7344,157.1094 Q21.4531,156.8125 20.9219,156.8125 Q20.4688,156.8125 20.1094,157.1875 Q18.875,158.4063 18.875,161.9219 Q18.875,164.9688 19.9219,165.9844 Q20.3438,166.4219 20.8594,166.4219 Q21.3125,166.4219 21.75,165.9844 Q22.3125,165.4375 22.3906,162.8438 L24.6875,162.8438 Z "/><text fill="#000000" font-family="sans-serif" font-size="12" lengthAdjust="spacingAndGlyphs" textLength="64" x="35" y="166.5508">InputParser</text><line style="stroke: #A80036; stroke-width: 1.5;" x1="7" x2="101" y1="177.6406" y2="177.6406"/><line style="stroke: #A80036; stroke-width: 1.5;" x1="7" x2="101" y1="185.6406" y2="185.6406"/><!--class ClassDiagramGenerator--><rect fill="#FEFECE" filter="url(#f1r8144qk5gxfq)" height="48" id="ClassDiagramGenerator" style="stroke: #A80036; stroke-width: 1.5;" width="168" x="173" y="30.6406"/><ellipse cx="188" cy="46.6406" fill="#ADD1B2" rx="11" ry="11" style="stroke: #A80036; stroke-width: 1.0;"/><path d="M191.6875,47.8438 Q191.4375,51.3281 190.2969,52.4844 Q189.2656,53.5 187.8594,53.5 Q186.4531,53.5 185.4219,52.4844 Q183.6719,50.7188 183.6719,47.0469 Q183.6719,42.7969 185.5469,40.8906 Q186.5938,39.875 187.9219,39.875 Q189.3281,39.875 190.1719,40.6875 Q191.6563,42.2031 191.5781,45.0781 L189.4531,45.0781 Q189.375,42.75 188.7344,42.1094 Q188.4531,41.8125 187.9219,41.8125 Q187.4688,41.8125 187.1094,42.1875 Q185.875,43.4063 185.875,46.9219 Q185.875,49.9688 186.9219,50.9844 Q187.3438,51.4219 187.8594,51.4219 Q188.3125,51.4219 188.75,50.9844 Q189.3125,50.4375 189.3906,47.8438 L191.6875,47.8438 Z "/><text fill="#000000" font-family="sans-serif" font-size="12" lengthAdjust="spacingAndGlyphs" textLength="136" x="202" y="51.5508">ClassDiagramGenerator</text><line style="stroke: #A80036; stroke-width: 1.5;" x1="174" x2="340" y1="62.6406" y2="62.6406"/><line style="stroke: #A80036; stroke-width: 1.5;" x1="174" x2="340" y1="70.6406" y2="70.6406"/><!--link CommandParser to OutputType--><path d="M523,200.7126 C523,216.7946 523,237.0026 523,255.315 " fill="none" id="CommandParser-&gt;OutputType" style="stroke: #A80036; stroke-width: 1.0;"/><polygon fill="#A80036" points="523,260.4246,527,251.4246,523,255.4246,519,251.4246,523,260.4246" style="stroke: #A80036; stroke-width: 1.0;"/><!--link CommandParser to CommandLineParam--><path d="M487.542,200.7126 C460.251,223.8586 422.878,255.554 396.603,277.8378 " fill="none" id="CommandParser-&gt;CommandLineParam" style="stroke: #A80036; stroke-width: 1.0;"/><polygon fill="#A80036" points="392.485,281.3307,401.936,278.5597,396.2982,278.0966,396.7613,272.4587,392.485,281.3307" style="stroke: #A80036; stroke-width: 1.0;"/><!--link CommandLineParam to OutputType--><path d="M441.223,305.6406 C451.016,305.6406 460.808,305.6406 470.601,305.6406 " fill="none" id="CommandLineParam-&gt;OutputType" style="stroke: #A80036; stroke-width: 1.0;"/><polygon fill="#A80036" points="475.722,305.6406,466.722,301.6406,470.722,305.6406,466.722,309.6406,475.722,305.6406" style="stroke: #A80036; stroke-width: 1.0;"/><!--link FileParser to CommandParser--><path d="M377.012,169.6406 C387.048,169.6406 397.084,169.6406 407.12,169.6406 " fill="none" id="FileParser-&gt;CommandParser" style="stroke: #A80036; stroke-width: 1.0;"/><polygon fill="#A80036" points="412.368,169.6406,403.368,165.6406,407.368,169.6406,403.368,173.6406,412.368,169.6406" style="stroke: #A80036; stroke-width: 1.0;"/><!--link FileParser to CommandLineParam--><path d="M281.237,200.7126 C299.738,223.6676 325.018,255.0328 342.953,277.2857 " fill="none" id="FileParser-&gt;CommandLineParam" style="stroke: #A80036; stroke-width: 1.0;"/><polygon fill="#A80036" points="346.213,281.3307,343.6794,271.8133,343.0753,277.4378,337.4508,276.8337,346.213,281.3307" style="stroke: #A80036; stroke-width: 1.0;"/><!--link FileParser to FileParam--><path d="M228.948,200.7126 C207.446,223.7626 178.033,255.2932 157.26,277.5622 " fill="none" id="FileParser-&gt;FileParam" style="stroke: #A80036; stroke-width: 1.0;"/><polygon fill="#A80036" points="153.744,281.3307,162.8076,277.477,157.1542,277.6741,156.9571,272.0207,153.744,281.3307" style="stroke: #A80036; stroke-width: 1.0;"/><!--link InputParser to FileParser--><path d="M102.3711,169.6406 C112.144,169.6406 121.917,169.6406 131.69,169.6406 " fill="none" id="InputParser-&gt;FileParser" style="stroke: #A80036; stroke-width: 1.0;"/><polygon fill="#A80036" points="136.8,169.6406,127.8,165.6406,131.8,169.6406,127.8,173.6406,136.8,169.6406" style="stroke: #A80036; stroke-width: 1.0;"/><!--link InputParser to FileParam--><path d="M67.4087,193.6756 C80.8584,216.7816 101.5782,252.3775 115.907,276.9941 " fill="none" id="InputParser-&gt;FileParam" style="stroke: #A80036; stroke-width: 1.0;"/><polygon fill="#A80036" points="118.505,281.4573,117.4344,271.6668,115.9897,277.1361,110.5204,275.6913,118.505,281.4573" style="stroke: #A80036; stroke-width: 1.0;"/><!--link ClassDiagramGenerator to CommandParser--><path d="M311.15,78.6436 C350.429,95.3306 404.068,118.1166 447.544,136.5856 " fill="none" id="ClassDiagramGenerator-&gt;CommandParser" style="stroke: #A80036; stroke-width: 1.0;"/><polygon fill="#A80036" points="452.254,138.5866,445.5357,131.3849,447.6524,136.6308,442.4065,138.7475,452.254,138.5866" style="stroke: #A80036; stroke-width: 1.0;"/><!--link ClassDiagramGenerator to FileParser--><path d="M257,78.7806 C257,94.3456 257,115.1736 257,132.8586 " fill="none" id="ClassDiagramGenerator-&gt;FileParser" style="stroke: #A80036; stroke-width: 1.0;"/><polygon fill="#A80036" points="257,138.2366,261,129.2366,257,133.2366,253,129.2366,257,138.2366" style="stroke: #A80036; stroke-width: 1.0;"/><!--link ClassDiagramGenerator to InputParser--><path d="M215.43,78.7806 C181.904,97.4426 134.788,123.6696 100.108,142.9746 " fill="none" id="ClassDiagramGenerator-&gt;InputParser" style="stroke: #A80036; stroke-width: 1.0;"/><polygon fill="#A80036" points="95.5143,145.5316,105.3235,144.6489,99.883,143.0996,101.4322,137.659,95.5143,145.5316" style="stroke: #A80036; stroke-width: 1.0;"/><!--
@startuml command_parser_class

title Cuiからのクラス図生成処理にかかわるオブジェクトのクラス図

enum OutputType
{
  None,
  Image,
  Ascii
}

class CommandParser
{
  + {static} Parse(input: string): CommandLineParam
}

class CommandLineParam
{
}

class FileParser
{
  + {static} Parse(input: CommandLineParam): FileParam
}

class FileParam
{
}

class InputParser
{
}

class ClassDiagramGenerator
{

}

CommandParser -> OutputType
CommandParser - -> CommandLineParam
CommandLineParam -> OutputType
FileParser -> CommandParser
FileParser - -> CommandLineParam
FileParser - -> FileParam
InputParser -> FileParser
InputParser - -> FileParam

ClassDiagramGenerator - -> CommandParser
ClassDiagramGenerator - -> FileParser
ClassDiagramGenerator - -> InputParser

@enduml

PlantUML version 1.2019.09(Tue Aug 27 01:19:51 JST 2019)
(GPL source distribution)
Java Runtime: OpenJDK Runtime Environment
JVM: OpenJDK 64-Bit Server VM
Java Version: 11.0.4+11
Operating System: Windows 10
OS Version: 10.0
Default Encoding: MS932
Language: ja
Country: JP
--></g></svg>