<?xml version="1.0" encoding="UTF-8" standalone="no"?><svg xmlns="http://www.w3.org/2000/svg" xmlns:xlink="http://www.w3.org/1999/xlink" contentScriptType="application/ecmascript" contentStyleType="text/css" height="948px" preserveAspectRatio="none" style="width:937px;height:948px;" version="1.1" viewBox="0 0 937 948" width="937px" zoomAndPan="magnify"><defs><filter height="300%" id="f1lzujexuw0f72" width="300%" x="-1" y="-1"><feGaussianBlur result="blurOut" stdDeviation="2.0"/><feColorMatrix in="blurOut" result="blurOut2" type="matrix" values="0 0 0 0 0 0 0 0 0 0 0 0 0 0 0 0 0 0 .4 0"/><feOffset dx="4.0" dy="4.0" in="blurOut2" result="blurOut3"/><feBlend in="SourceGraphic" in2="blurOut3" mode="normal"/></filter></defs><g><text fill="#000000" font-family="sans-serif" font-size="18" lengthAdjust="spacingAndGlyphs" textLength="405" x="265" y="28.6855">Cuiで入力されたテキストからクラス図を出力する</text><ellipse cx="156" cy="72.7363" fill="#000000" filter="url(#f1lzujexuw0f72)" rx="10" ry="10" style="stroke: none; stroke-width: 1.0;"/><rect fill="#FEFECE" filter="url(#f1lzujexuw0f72)" height="35.0938" rx="12.5" ry="12.5" style="stroke: #A80036; stroke-width: 1.5;" width="272" x="20" y="102.7363"/><text fill="#000000" font-family="sans-serif" font-size="12" lengthAdjust="spacingAndGlyphs" textLength="252" x="30" y="125.1934">コマンドでファイルパスと出力形式を指定する</text><rect fill="#FEFECE" filter="url(#f1lzujexuw0f72)" height="35.0938" rx="12.5" ry="12.5" style="stroke: #A80036; stroke-width: 1.5;" width="200" x="56" y="859.2285"/><text fill="#000000" font-family="sans-serif" font-size="12" lengthAdjust="spacingAndGlyphs" textLength="180" x="66" y="881.6855">出力先と成功した旨が出力される</text><ellipse cx="156" cy="925.3223" fill="#FFFFFF" filter="url(#f1lzujexuw0f72)" rx="11" ry="11" style="stroke: #000000; stroke-width: 1.0;"/><ellipse cx="156" cy="925.3223" fill="#000000" rx="6" ry="6" style="stroke: #7F7F7F; stroke-width: 1.0;"/><rect fill="#FEFECE" filter="url(#f1lzujexuw0f72)" height="35.0938" rx="12.5" ry="12.5" style="stroke: #A80036; stroke-width: 1.5;" width="212" x="419.5" y="157.8301"/><text fill="#000000" font-family="sans-serif" font-size="12" lengthAdjust="spacingAndGlyphs" textLength="192" x="429.5" y="180.2871">ファイルパスと出力形式を取得する</text><polygon fill="#FEFECE" filter="url(#f1lzujexuw0f72)" points="454,212.9238,597,212.9238,609,224.9238,597,236.9238,454,236.9238,442,224.9238,454,212.9238" style="stroke: #A80036; stroke-width: 1.5;"/><text fill="#000000" font-family="sans-serif" font-size="11" lengthAdjust="spacingAndGlyphs" textLength="143" x="454" y="229.4248">ファイルが存在するかどうか</text><text fill="#000000" font-family="sans-serif" font-size="11" lengthAdjust="spacingAndGlyphs" textLength="24" x="418" y="222.5068">false</text><text fill="#000000" font-family="sans-serif" font-size="11" lengthAdjust="spacingAndGlyphs" textLength="19" x="609" y="222.5068">true</text><rect fill="#FEFECE" filter="url(#f1lzujexuw0f72)" height="35.0938" rx="12.5" ry="12.5" style="stroke: #A80036; stroke-width: 1.5;" width="152" x="302" y="246.9238"/><text fill="#000000" font-family="sans-serif" font-size="12" lengthAdjust="spacingAndGlyphs" textLength="132" x="312" y="269.3809">エラーを出力し終了する</text><ellipse cx="378" cy="313.0176" fill="#FFFFFF" filter="url(#f1lzujexuw0f72)" rx="11" ry="11" style="stroke: #000000; stroke-width: 1.0;"/><ellipse cx="378" cy="313.0176" fill="#000000" rx="6" ry="6" style="stroke: #7F7F7F; stroke-width: 1.0;"/><rect fill="#FEFECE" filter="url(#f1lzujexuw0f72)" height="35.0938" rx="12.5" ry="12.5" style="stroke: #A80036; stroke-width: 1.5;" width="128" x="609" y="246.9238"/><text fill="#000000" font-family="sans-serif" font-size="12" lengthAdjust="spacingAndGlyphs" textLength="108" x="619" y="269.3809">ファイルを読み込む</text><polygon fill="#FEFECE" filter="url(#f1lzujexuw0f72)" points="601.5,302.0176,744.5,302.0176,756.5,314.0176,744.5,326.0176,601.5,326.0176,589.5,314.0176,601.5,302.0176" style="stroke: #A80036; stroke-width: 1.5;"/><text fill="#000000" font-family="sans-serif" font-size="11" lengthAdjust="spacingAndGlyphs" textLength="143" x="601.5" y="318.5186">ファイルが読み込めなかった</text><text fill="#000000" font-family="sans-serif" font-size="11" lengthAdjust="spacingAndGlyphs" textLength="19" x="570.5" y="311.6006">true</text><text fill="#000000" font-family="sans-serif" font-size="11" lengthAdjust="spacingAndGlyphs" textLength="24" x="756.5" y="311.6006">false</text><rect fill="#FEFECE" filter="url(#f1lzujexuw0f72)" height="35.0938" rx="12.5" ry="12.5" style="stroke: #A80036; stroke-width: 1.5;" width="152" x="484" y="336.0176"/><text fill="#000000" font-family="sans-serif" font-size="12" lengthAdjust="spacingAndGlyphs" textLength="132" x="494" y="358.4746">エラーを出力し終了する</text><ellipse cx="560" cy="402.1113" fill="#FFFFFF" filter="url(#f1lzujexuw0f72)" rx="11" ry="11" style="stroke: #000000; stroke-width: 1.0;"/><ellipse cx="560" cy="402.1113" fill="#000000" rx="6" ry="6" style="stroke: #7F7F7F; stroke-width: 1.0;"/><rect fill="#FEFECE" filter="url(#f1lzujexuw0f72)" height="35.0938" rx="12.5" ry="12.5" style="stroke: #A80036; stroke-width: 1.5;" width="260" x="656" y="336.0176"/><text fill="#000000" font-family="sans-serif" font-size="12" lengthAdjust="spacingAndGlyphs" textLength="240" x="666" y="358.4746">ファイル内のテキストをクラス図に変換する</text><rect fill="#FEFECE" filter="url(#f1lzujexuw0f72)" height="35.0938" rx="12.5" ry="12.5" style="stroke: #A80036; stroke-width: 1.5;" width="152" x="710" y="440.0293"/><text fill="#000000" font-family="sans-serif" font-size="12" lengthAdjust="spacingAndGlyphs" textLength="132" x="720" y="462.4863">エラーを出力し終了する</text><ellipse cx="786" cy="520.0762" fill="#FFFFFF" filter="url(#f1lzujexuw0f72)" rx="11" ry="11" style="stroke: #000000; stroke-width: 1.0;"/><ellipse cx="786" cy="520.0762" fill="#000000" rx="6" ry="6" style="stroke: #7F7F7F; stroke-width: 1.0;"/><polygon fill="#FEFECE" filter="url(#f1lzujexuw0f72)" points="747.5,391.1113,824.5,391.1113,836.5,403.1113,824.5,415.1113,747.5,415.1113,735.5,403.1113,747.5,391.1113" style="stroke: #A80036; stroke-width: 1.5;"/><text fill="#000000" font-family="sans-serif" font-size="11" lengthAdjust="spacingAndGlyphs" textLength="19" x="790" y="426.5303">true</text><text fill="#000000" font-family="sans-serif" font-size="11" lengthAdjust="spacingAndGlyphs" textLength="77" x="747.5" y="407.6123">変換に失敗した</text><rect fill="#FEFECE" filter="url(#f1lzujexuw0f72)" height="35.0938" rx="12.5" ry="12.5" style="stroke: #A80036; stroke-width: 1.5;" width="284" x="383.5" y="573.0762"/><text fill="#000000" font-family="sans-serif" font-size="12" lengthAdjust="spacingAndGlyphs" textLength="264" x="393.5" y="595.5332">クラス図を指定された形式でファイルに出力する</text><rect fill="#FEFECE" filter="url(#f1lzujexuw0f72)" height="35.0938" rx="12.5" ry="12.5" style="stroke: #A80036; stroke-width: 1.5;" width="152" x="449.5" y="677.0879"/><text fill="#000000" font-family="sans-serif" font-size="12" lengthAdjust="spacingAndGlyphs" textLength="132" x="459.5" y="699.5449">エラーを出力し終了する</text><ellipse cx="525.5" cy="751.1348" fill="#FFFFFF" filter="url(#f1lzujexuw0f72)" rx="11" ry="11" style="stroke: #000000; stroke-width: 1.0;"/><ellipse cx="525.5" cy="751.1348" fill="#000000" rx="6" ry="6" style="stroke: #7F7F7F; stroke-width: 1.0;"/><polygon fill="#FEFECE" filter="url(#f1lzujexuw0f72)" points="465,628.1699,586,628.1699,598,640.1699,586,652.1699,465,652.1699,453,640.1699,465,628.1699" style="stroke: #A80036; stroke-width: 1.5;"/><text fill="#000000" font-family="sans-serif" font-size="11" lengthAdjust="spacingAndGlyphs" textLength="19" x="529.5" y="663.5889">true</text><text fill="#000000" font-family="sans-serif" font-size="11" lengthAdjust="spacingAndGlyphs" textLength="121" x="465" y="644.6709">ファイル出力に失敗した</text><rect fill="#FEFECE" filter="url(#f1lzujexuw0f72)" height="35.0938" rx="12.5" ry="12.5" style="stroke: #A80036; stroke-width: 1.5;" width="188" x="431.5" y="804.1348"/><text fill="#000000" font-family="sans-serif" font-size="12" lengthAdjust="spacingAndGlyphs" textLength="168" x="441.5" y="826.5918">出力先と成功した旨を出力する</text><line style="stroke: #A80036; stroke-width: 1.5;" x1="156" x2="156" y1="82.7363" y2="102.7363"/><polygon fill="#A80036" points="152,92.7363,156,102.7363,160,92.7363,156,96.7363" style="stroke: #A80036; stroke-width: 1.0;"/><line style="stroke: #A80036; stroke-width: 1.5;" x1="156" x2="156" y1="894.3223" y2="914.3223"/><polygon fill="#A80036" points="152,904.3223,156,914.3223,160,904.3223,156,908.3223" style="stroke: #A80036; stroke-width: 1.0;"/><line style="stroke: #A80036; stroke-width: 1.5;" x1="378" x2="378" y1="282.0176" y2="302.0176"/><polygon fill="#A80036" points="374,292.0176,378,302.0176,382,292.0176,378,296.0176" style="stroke: #A80036; stroke-width: 1.0;"/><line style="stroke: #A80036; stroke-width: 1.5;" x1="560" x2="560" y1="371.1113" y2="391.1113"/><polygon fill="#A80036" points="556,381.1113,560,391.1113,564,381.1113,560,385.1113" style="stroke: #A80036; stroke-width: 1.0;"/><line style="stroke: #A80036; stroke-width: 1.5;" x1="786" x2="786" y1="475.123" y2="509.0762"/><polygon fill="#A80036" points="782,499.0762,786,509.0762,790,499.0762,786,503.0762" style="stroke: #A80036; stroke-width: 1.0;"/><line style="stroke: #A80036; stroke-width: 1.5;" x1="786" x2="786" y1="415.1113" y2="440.0293"/><polygon fill="#A80036" points="782,430.0293,786,440.0293,790,430.0293,786,434.0293" style="stroke: #A80036; stroke-width: 1.0;"/><line style="stroke: #A80036; stroke-width: 1.5;" x1="836.5" x2="872" y1="403.1113" y2="403.1113"/><polygon fill="#A80036" points="868,479.0762,872,489.0762,876,479.0762,872,483.0762" style="stroke: #A80036; stroke-width: 1.5;"/><line style="stroke: #A80036; stroke-width: 1.5;" x1="872" x2="872" y1="403.1113" y2="558.0762"/><line style="stroke: #A80036; stroke-width: 1.5;" x1="872" x2="525.5" y1="558.0762" y2="558.0762"/><line style="stroke: #A80036; stroke-width: 1.5;" x1="525.5" x2="525.5" y1="558.0762" y2="573.0762"/><polygon fill="#A80036" points="521.5,563.0762,525.5,573.0762,529.5,563.0762,525.5,567.0762" style="stroke: #A80036; stroke-width: 1.0;"/><line style="stroke: #A80036; stroke-width: 1.5;" x1="786" x2="786" y1="371.1113" y2="391.1113"/><polygon fill="#A80036" points="782,381.1113,786,391.1113,790,381.1113,786,385.1113" style="stroke: #A80036; stroke-width: 1.0;"/><line style="stroke: #A80036; stroke-width: 1.5;" x1="589.5" x2="560" y1="314.0176" y2="314.0176"/><line style="stroke: #A80036; stroke-width: 1.5;" x1="560" x2="560" y1="314.0176" y2="336.0176"/><polygon fill="#A80036" points="556,326.0176,560,336.0176,564,326.0176,560,330.0176" style="stroke: #A80036; stroke-width: 1.0;"/><line style="stroke: #A80036; stroke-width: 1.5;" x1="756.5" x2="786" y1="314.0176" y2="314.0176"/><line style="stroke: #A80036; stroke-width: 1.5;" x1="786" x2="786" y1="314.0176" y2="336.0176"/><polygon fill="#A80036" points="782,326.0176,786,336.0176,790,326.0176,786,330.0176" style="stroke: #A80036; stroke-width: 1.0;"/><line style="stroke: #A80036; stroke-width: 1.5;" x1="673" x2="673" y1="282.0176" y2="302.0176"/><polygon fill="#A80036" points="669,292.0176,673,302.0176,677,292.0176,673,296.0176" style="stroke: #A80036; stroke-width: 1.0;"/><line style="stroke: #A80036; stroke-width: 1.5;" x1="442" x2="378" y1="224.9238" y2="224.9238"/><line style="stroke: #A80036; stroke-width: 1.5;" x1="378" x2="378" y1="224.9238" y2="246.9238"/><polygon fill="#A80036" points="374,236.9238,378,246.9238,382,236.9238,378,240.9238" style="stroke: #A80036; stroke-width: 1.0;"/><line style="stroke: #A80036; stroke-width: 1.5;" x1="609" x2="673" y1="224.9238" y2="224.9238"/><line style="stroke: #A80036; stroke-width: 1.5;" x1="673" x2="673" y1="224.9238" y2="246.9238"/><polygon fill="#A80036" points="669,236.9238,673,246.9238,677,236.9238,673,240.9238" style="stroke: #A80036; stroke-width: 1.0;"/><line style="stroke: #A80036; stroke-width: 1.5;" x1="525.5" x2="525.5" y1="192.9238" y2="212.9238"/><polygon fill="#A80036" points="521.5,202.9238,525.5,212.9238,529.5,202.9238,525.5,206.9238" style="stroke: #A80036; stroke-width: 1.0;"/><line style="stroke: #A80036; stroke-width: 1.5;" x1="525.5" x2="525.5" y1="712.1816" y2="740.1348"/><polygon fill="#A80036" points="521.5,730.1348,525.5,740.1348,529.5,730.1348,525.5,734.1348" style="stroke: #A80036; stroke-width: 1.0;"/><line style="stroke: #A80036; stroke-width: 1.5;" x1="525.5" x2="525.5" y1="652.1699" y2="677.0879"/><polygon fill="#A80036" points="521.5,667.0879,525.5,677.0879,529.5,667.0879,525.5,671.0879" style="stroke: #A80036; stroke-width: 1.0;"/><line style="stroke: #A80036; stroke-width: 1.5;" x1="598" x2="611.5" y1="640.1699" y2="640.1699"/><polygon fill="#A80036" points="607.5,710.1348,611.5,720.1348,615.5,710.1348,611.5,714.1348" style="stroke: #A80036; stroke-width: 1.5;"/><line style="stroke: #A80036; stroke-width: 1.5;" x1="611.5" x2="611.5" y1="640.1699" y2="784.1348"/><line style="stroke: #A80036; stroke-width: 1.5;" x1="611.5" x2="525.5" y1="784.1348" y2="784.1348"/><line style="stroke: #A80036; stroke-width: 1.5;" x1="525.5" x2="525.5" y1="784.1348" y2="804.1348"/><polygon fill="#A80036" points="521.5,794.1348,525.5,804.1348,529.5,794.1348,525.5,798.1348" style="stroke: #A80036; stroke-width: 1.0;"/><line style="stroke: #A80036; stroke-width: 1.5;" x1="525.5" x2="525.5" y1="608.1699" y2="628.1699"/><polygon fill="#A80036" points="521.5,618.1699,525.5,628.1699,529.5,618.1699,525.5,622.1699" style="stroke: #A80036; stroke-width: 1.0;"/><line style="stroke: #A80036; stroke-width: 1.5;" x1="156" x2="156" y1="137.8301" y2="142.8301"/><line style="stroke: #A80036; stroke-width: 1.5;" x1="156" x2="525.5" y1="142.8301" y2="142.8301"/><line style="stroke: #A80036; stroke-width: 1.5;" x1="525.5" x2="525.5" y1="142.8301" y2="157.8301"/><polygon fill="#A80036" points="521.5,147.8301,525.5,157.8301,529.5,147.8301,525.5,151.8301" style="stroke: #A80036; stroke-width: 1.0;"/><line style="stroke: #A80036; stroke-width: 1.5;" x1="525.5" x2="525.5" y1="839.2285" y2="844.2285"/><line style="stroke: #A80036; stroke-width: 1.5;" x1="525.5" x2="156" y1="844.2285" y2="844.2285"/><line style="stroke: #A80036; stroke-width: 1.5;" x1="156" x2="156" y1="844.2285" y2="859.2285"/><polygon fill="#A80036" points="152,849.2285,156,859.2285,160,849.2285,156,853.2285" style="stroke: #A80036; stroke-width: 1.0;"/><text fill="#000000" font-family="sans-serif" font-size="18" lengthAdjust="spacingAndGlyphs" textLength="27" x="142" y="53.7813">Cui</text><text fill="#000000" font-family="sans-serif" font-size="18" lengthAdjust="spacingAndGlyphs" textLength="39" x="589" y="53.7813">Core</text><line style="stroke: #000000; stroke-width: 2.0;" x1="10" x2="10" y1="35.0957" y2="936.3223"/><line style="stroke: #000000; stroke-width: 2.0;" x1="297" x2="297" y1="35.0957" y2="936.3223"/><line style="stroke: #000000; stroke-width: 2.0;" x1="925" x2="925" y1="35.0957" y2="936.3223"/><!--
@startuml

title Cuiで入力されたテキストからクラス図を出力する

|Cui|
start
:コマンドでファイルパスと出力形式を指定する;
|Core|
:ファイルパスと出力形式を取得する;
if (ファイルが存在するかどうか) then (false)
  :エラーを出力し終了する;
  stop
else (true)
  :ファイルを読み込む;
  if (ファイルが読み込めなかった) then (true)
    :エラーを出力し終了する;
    stop
  else (false)
    :ファイル内のテキストをクラス図に変換する;
    if (変換に失敗した) then (true)
      :エラーを出力し終了する;
      stop
    endif
  endif
endif
:クラス図を指定された形式でファイルに出力する;
if (ファイル出力に失敗した) then (true)
  :エラーを出力し終了する;
  stop
endif
:出力先と成功した旨を出力する;
|Cui|
:出力先と成功した旨が出力される;
stop

@enduml

PlantUML version 1.2019.09(Tue Aug 27 01:19:51 JST 2019)
(GPL source distribution)
Java Runtime: OpenJDK Runtime Environment
JVM: OpenJDK 64-Bit Server VM
Java Version: 11.0.4+11
Operating System: Windows 10
OS Version: 10.0
Default Encoding: MS932
Language: ja
Country: JP
--></g></svg>